#N canvas 170 22 1440 852 10;
#X obj 197 263 dac~;
#X obj 197 191 *~;
#X obj 197 143 vline~;
#X obj 288 175 osc~;
#X floatatom 288 144 5 0 0 0 - - -;
#X obj 197 230 *~ 1;
#X obj 288 111 r freq;
#X obj 197 40 r trig;
#X obj 197 61 bng 15 250 50 0 empty empty empty 17 7 0 10 -262144 -1
-1;
#X msg 197 81 1 10 \, 0 1000 10;
#X text 347 28 Copyright 2014 Manh Luong Bui Licensed under the Apache
License \, Version 2 (the "License") \; you may not use this file except
in compliance with the License. You may obtain a copy of the License
at http://www.apache.org/licenses/LICENSE-2.0 Unless required by applicable
law or agreed to in writing \, software distributed under the License
is distributed on an "AS IS" BASIS \, WITHOUT WARRANTIES OR CONDITIONS
OF ANY KIND \, either express or implied. See the License for the specific
language governing permissions and limitations under the License.;
#X obj 145 39 r stop;
#X msg 145 78 0 10;
#X obj 145 59 bng 15 250 50 0 empty empty empty 17 7 0 10 -262144 -1
-1;
#X connect 1 0 5 0;
#X connect 2 0 1 0;
#X connect 3 0 1 1;
#X connect 4 0 3 0;
#X connect 5 0 0 1;
#X connect 5 0 0 0;
#X connect 6 0 4 0;
#X connect 7 0 8 0;
#X connect 8 0 9 0;
#X connect 9 0 2 0;
#X connect 11 0 13 0;
#X connect 12 0 2 0;
#X connect 13 0 12 0;
